# xmcd
#
# Track frame offsets:
#	150
#	11304
#	26104
#	37754
#	51922
#	63407
#	77034
#	86543
#	99181
#	113986
#	128951
#	142129
#	154568
#	162463
#
# Disc length: 2330 seconds
#
# Revision: 1
# Processed by: cddbd v1.5.2PL0 Copyright (c) Steve Scherf et al.
# Submitted via: audiograbber 1.83.01
#
DISCID=ad09180e
DTITLE=Classics - Johnny Cash
DYEAR=1900
DGENRE=Country
TTITLE0=Cry, Cry, Cry
TTITLE1=Long Black Veil
TTITLE2=I Walk the Line
TTITLE3=Tennessee Flat Top Box
TTITLE4=Get Rhythm
TTITLE5=I Still Miss Someone
TTITLE6=Blue Train
TTITLE7=Folsom Prison Blues
TTITLE8=Home of the Blues
TTITLE9=Cat's in the Cradle
TTITLE10=Wanted Man
TTITLE11=Ring of Fire
TTITLE12=Guess Things Happen That Way
TTITLE13=Sixteen Tons
EXTD=
EXTT0=
EXTT1=
EXTT2=
EXTT3=
EXTT4=
EXTT5=
EXTT6=
EXTT7=
EXTT8=
EXTT9=
EXTT10=
EXTT11=
EXTT12=
EXTT13=
PLAYORDER=
